# xmcd
#
# Track frame offsets: 
#        150
#        15252
#        31132
#        46277
#        59490
#        74260
#        87840
#        102192
#        116275
#        129710
#        142692
#        155527
#        167110
#        180150
#        194075
#        207727
#        222675
#        236510
#        248707
#        264142
#        278947
#        290377
#        303940
#        316722
#
# Disc length: 4386 seconds
#
# Revision: 4
# Processed by: cddbd v1.5.2PL0 Copyright (c) Steve Scherf et al.
# Submitted via: ExactAudioCopy v0.95b4
#
DISCID=4f112018
DTITLE=Various Artist - Violin, Sing the Blues for Me: African-American Fiddl
DTITLE=ers 1926-1949
DYEAR=1999
DGENRE=String Band
TTITLE0=Johnson Boys - Violin Blues [1928]
TTITLE1=Andrew and Jim Baxter - K.C. Railroad Blues [1927]
TTITLE2="Peg Leg" Howell and His Gang - Beaver Slide Rag [1927]
TTITLE3=Mississippi Mud Steppers - Alma Waltz (Ruby Waltz) [1930]
TTITLE4=Tommie Bradley - Window Pane Blues [1932]
TTITLE5=Alabama Sheiks (The Fox and the Rabbit) - Travelin' Railroad Man
TTITLE5=[1931]
TTITLE6=Whistler and His Jug Band - Pig Meat Blues [1927]
TTITLE7=Frank Stokes - Right Now Blues [1929]
TTITLE8=Bo Chatman - East Jackson Blues [1928]
TTITLE9=Mobile Strugglers - Memphis Blues [1949]
TTITLE10=Tennessee Chocolate Drops - Vine Street Drag [1930]
TTITLE11=Kansas City Blues Strummers - Broken Bed Blues [1926]
TTITLE12=Henry Williams and Eddie Anthony - Lonesome Blues [1928]
TTITLE13=Memphis Jug Band - Memphis Shakedown [1934]
TTITLE14=Tommie Bradley - Adam and Eve [1930]
TTITLE15=Henry Sims - Tell Me Man Blues [1929]
TTITLE16="Blue Coat" Tom Nelson - Blue Coat Blues [1928]
TTITLE17=Booker Orchestra - Salty Dog [1927]
TTITLE18=Joe Williams' Washboard Blues Singers - Baby, Please Don't Go
TTITLE18=[1935]
TTITLE19=Mississippi Sheiks - Stop and Listen Blues No. 2 [1930]
TTITLE20=Cow Cow Davenport - Stealin' Blues [1927]
TTITLE21=Andrew and Jim Baxter - The Moore Girl [1927]
TTITLE22=Jack Kelly and His South Memphis Jug Band - Highway No. 61 Blue
TTITLE22=s [1933]
TTITLE23=Louie Bluie and Ted Bogan - Ted's Stomp [1934]
EXTD=Compilation produced by Marshall Wyatt.\nCD: Old Hat Records CD-1
EXTD=002 (1999-08-24), UPC 670725100226.
EXTT0=
EXTT1=
EXTT2=
EXTT3=
EXTT4=
EXTT5=
EXTT6=
EXTT7=
EXTT8=
EXTT9=
EXTT10=
EXTT11=
EXTT12=
EXTT13=
EXTT14=
EXTT15=
EXTT16=
EXTT17=
EXTT18=
EXTT19=
EXTT20=
EXTT21=
EXTT22=
EXTT23=
PLAYORDER=
